<mxfile host="Electron" modified="2023-10-03T01:28:35.565Z" agent="Mozilla/5.0 (Windows NT 10.0; Win64; x64) AppleWebKit/537.36 (KHTML, like Gecko) draw.io/21.7.5 Chrome/114.0.5735.289 Electron/25.8.1 Safari/537.36" etag="fJQHUUTarktVMsJQ_t6f" version="21.7.5" type="device">
  <diagram id="prtHgNgQTEPvFCAcTncT" name="Page-1">
    <mxGraphModel dx="733" dy="443" grid="1" gridSize="10" guides="1" tooltips="1" connect="1" arrows="1" fold="1" page="1" pageScale="1" pageWidth="827" pageHeight="1169" math="0" shadow="0">
      <root>
        <mxCell id="0" />
        <mxCell id="1" parent="0" />
        <mxCell id="dNxyNK7c78bLwvsdeMH5-19" value="Sistema de Controle de Aluguel de Veículos" style="swimlane;html=1;childLayout=stackLayout;resizeParent=1;resizeParentMax=0;horizontal=0;startSize=20;horizontalStack=0;" parent="1" vertex="1">
          <mxGeometry x="40" y="120" width="1420" height="360" as="geometry" />
        </mxCell>
        <mxCell id="dNxyNK7c78bLwvsdeMH5-20" value="Funcionário&amp;nbsp;" style="swimlane;html=1;startSize=20;horizontal=0;" parent="dNxyNK7c78bLwvsdeMH5-19" vertex="1">
          <mxGeometry x="20" width="1400" height="120" as="geometry" />
        </mxCell>
        <mxCell id="dNxyNK7c78bLwvsdeMH5-25" value="" style="edgeStyle=orthogonalEdgeStyle;rounded=0;orthogonalLoop=1;jettySize=auto;html=1;" parent="dNxyNK7c78bLwvsdeMH5-20" source="dNxyNK7c78bLwvsdeMH5-23" target="dNxyNK7c78bLwvsdeMH5-24" edge="1">
          <mxGeometry relative="1" as="geometry" />
        </mxCell>
        <mxCell id="dNxyNK7c78bLwvsdeMH5-23" value="" style="ellipse;whiteSpace=wrap;html=1;" parent="dNxyNK7c78bLwvsdeMH5-20" vertex="1">
          <mxGeometry x="40" y="40" width="40" height="40" as="geometry" />
        </mxCell>
        <mxCell id="dNxyNK7c78bLwvsdeMH5-24" value="&lt;font color=&quot;#ffffff&quot;&gt;Selecionar a opção de Locação de Veículos&lt;/font&gt;" style="rounded=0;whiteSpace=wrap;html=1;fontFamily=Helvetica;fontSize=12;fontColor=#000000;align=center;" parent="dNxyNK7c78bLwvsdeMH5-20" vertex="1">
          <mxGeometry x="120" y="30" width="110" height="60" as="geometry" />
        </mxCell>
        <mxCell id="WU_TZwehLQSFzrOL6X8j-6" value="" style="edgeStyle=orthogonalEdgeStyle;rounded=0;orthogonalLoop=1;jettySize=auto;html=1;" edge="1" parent="dNxyNK7c78bLwvsdeMH5-20" source="WU_TZwehLQSFzrOL6X8j-3" target="WU_TZwehLQSFzrOL6X8j-5">
          <mxGeometry relative="1" as="geometry" />
        </mxCell>
        <mxCell id="WU_TZwehLQSFzrOL6X8j-3" value="&lt;font color=&quot;#ffffff&quot;&gt;Localizar o cliente desejado&lt;/font&gt;" style="whiteSpace=wrap;html=1;fontColor=#000000;rounded=0;" vertex="1" parent="dNxyNK7c78bLwvsdeMH5-20">
          <mxGeometry x="250" y="30" width="100" height="60" as="geometry" />
        </mxCell>
        <mxCell id="WU_TZwehLQSFzrOL6X8j-8" value="" style="edgeStyle=orthogonalEdgeStyle;rounded=0;orthogonalLoop=1;jettySize=auto;html=1;" edge="1" parent="dNxyNK7c78bLwvsdeMH5-20" source="WU_TZwehLQSFzrOL6X8j-5" target="WU_TZwehLQSFzrOL6X8j-7">
          <mxGeometry relative="1" as="geometry" />
        </mxCell>
        <mxCell id="WU_TZwehLQSFzrOL6X8j-5" value="" style="rhombus;whiteSpace=wrap;html=1;fontColor=#000000;rounded=0;" vertex="1" parent="dNxyNK7c78bLwvsdeMH5-20">
          <mxGeometry x="380" y="40" width="40" height="40" as="geometry" />
        </mxCell>
        <mxCell id="WU_TZwehLQSFzrOL6X8j-7" value="&lt;font color=&quot;#ffffff&quot;&gt;Cadastrar o Cliente&lt;/font&gt;" style="whiteSpace=wrap;html=1;fontColor=#000000;rounded=0;" vertex="1" parent="dNxyNK7c78bLwvsdeMH5-20">
          <mxGeometry x="440" y="30" width="80" height="60" as="geometry" />
        </mxCell>
        <mxCell id="WU_TZwehLQSFzrOL6X8j-23" value="" style="edgeStyle=orthogonalEdgeStyle;rounded=0;orthogonalLoop=1;jettySize=auto;html=1;" edge="1" parent="dNxyNK7c78bLwvsdeMH5-20" source="WU_TZwehLQSFzrOL6X8j-20" target="WU_TZwehLQSFzrOL6X8j-22">
          <mxGeometry relative="1" as="geometry" />
        </mxCell>
        <mxCell id="WU_TZwehLQSFzrOL6X8j-20" value="&lt;font color=&quot;#ffffff&quot;&gt;Selecionar veículo&lt;/font&gt;" style="whiteSpace=wrap;html=1;fontColor=#000000;rounded=0;" vertex="1" parent="dNxyNK7c78bLwvsdeMH5-20">
          <mxGeometry x="560" y="30" width="90" height="60" as="geometry" />
        </mxCell>
        <mxCell id="WU_TZwehLQSFzrOL6X8j-22" value="&lt;font color=&quot;#ffffff&quot;&gt;Inserir dados da locação&lt;/font&gt;" style="whiteSpace=wrap;html=1;fontColor=#000000;rounded=0;" vertex="1" parent="dNxyNK7c78bLwvsdeMH5-20">
          <mxGeometry x="687" y="30" width="80" height="60" as="geometry" />
        </mxCell>
        <mxCell id="WU_TZwehLQSFzrOL6X8j-43" value="" style="edgeStyle=orthogonalEdgeStyle;rounded=0;orthogonalLoop=1;jettySize=auto;html=1;" edge="1" parent="dNxyNK7c78bLwvsdeMH5-20" source="WU_TZwehLQSFzrOL6X8j-40" target="WU_TZwehLQSFzrOL6X8j-42">
          <mxGeometry relative="1" as="geometry" />
        </mxCell>
        <mxCell id="WU_TZwehLQSFzrOL6X8j-40" value="&lt;font color=&quot;#ffffff&quot;&gt;Registrar locação&lt;/font&gt;" style="whiteSpace=wrap;html=1;fontColor=#000000;rounded=0;" vertex="1" parent="dNxyNK7c78bLwvsdeMH5-20">
          <mxGeometry x="1010" y="30" width="80" height="60" as="geometry" />
        </mxCell>
        <mxCell id="WU_TZwehLQSFzrOL6X8j-42" value="&lt;font color=&quot;#ffffff&quot;&gt;Liberar veículo&lt;/font&gt;" style="whiteSpace=wrap;html=1;fontColor=#000000;rounded=0;" vertex="1" parent="dNxyNK7c78bLwvsdeMH5-20">
          <mxGeometry x="1160" y="30" width="80" height="60" as="geometry" />
        </mxCell>
        <mxCell id="dNxyNK7c78bLwvsdeMH5-21" value="Sistema" style="swimlane;html=1;startSize=20;horizontal=0;" parent="dNxyNK7c78bLwvsdeMH5-19" vertex="1">
          <mxGeometry x="20" y="120" width="1400" height="120" as="geometry" />
        </mxCell>
        <mxCell id="WU_TZwehLQSFzrOL6X8j-1" value="&lt;font color=&quot;#ffffff&quot;&gt;Carregar clientes registrados&lt;/font&gt;" style="whiteSpace=wrap;html=1;fontColor=#000000;rounded=0;" vertex="1" parent="dNxyNK7c78bLwvsdeMH5-21">
          <mxGeometry x="125" y="30" width="100" height="60" as="geometry" />
        </mxCell>
        <mxCell id="WU_TZwehLQSFzrOL6X8j-19" value="" style="edgeStyle=orthogonalEdgeStyle;rounded=0;orthogonalLoop=1;jettySize=auto;html=1;" edge="1" parent="dNxyNK7c78bLwvsdeMH5-21" source="WU_TZwehLQSFzrOL6X8j-10" target="WU_TZwehLQSFzrOL6X8j-18">
          <mxGeometry relative="1" as="geometry" />
        </mxCell>
        <mxCell id="WU_TZwehLQSFzrOL6X8j-10" value="&lt;font color=&quot;#ffffff&quot;&gt;Verificar veículos disponíveis&lt;/font&gt;" style="whiteSpace=wrap;html=1;fontColor=#000000;rounded=0;" vertex="1" parent="dNxyNK7c78bLwvsdeMH5-21">
          <mxGeometry x="440" y="30" width="80" height="60" as="geometry" />
        </mxCell>
        <mxCell id="WU_TZwehLQSFzrOL6X8j-18" value="&lt;font color=&quot;#ffffff&quot;&gt;Listar veículos disponíveis&lt;/font&gt;" style="whiteSpace=wrap;html=1;fontColor=#000000;rounded=0;" vertex="1" parent="dNxyNK7c78bLwvsdeMH5-21">
          <mxGeometry x="560" y="30" width="90" height="60" as="geometry" />
        </mxCell>
        <mxCell id="WU_TZwehLQSFzrOL6X8j-29" value="" style="edgeStyle=orthogonalEdgeStyle;rounded=0;orthogonalLoop=1;jettySize=auto;html=1;" edge="1" parent="dNxyNK7c78bLwvsdeMH5-21" source="WU_TZwehLQSFzrOL6X8j-26" target="WU_TZwehLQSFzrOL6X8j-28">
          <mxGeometry relative="1" as="geometry" />
        </mxCell>
        <mxCell id="WU_TZwehLQSFzrOL6X8j-26" value="&lt;font color=&quot;#ffffff&quot;&gt;Calcular valor total e caução&lt;/font&gt;" style="whiteSpace=wrap;html=1;fontColor=#000000;rounded=0;" vertex="1" parent="dNxyNK7c78bLwvsdeMH5-21">
          <mxGeometry x="687" y="30" width="80" height="60" as="geometry" />
        </mxCell>
        <mxCell id="WU_TZwehLQSFzrOL6X8j-28" value="&lt;font color=&quot;#ffffff&quot;&gt;Informar valores ao cliente&lt;/font&gt;" style="whiteSpace=wrap;html=1;fontColor=#000000;rounded=0;" vertex="1" parent="dNxyNK7c78bLwvsdeMH5-21">
          <mxGeometry x="800" y="30" width="80" height="60" as="geometry" />
        </mxCell>
        <mxCell id="WU_TZwehLQSFzrOL6X8j-35" value="" style="edgeStyle=orthogonalEdgeStyle;rounded=0;orthogonalLoop=1;jettySize=auto;html=1;" edge="1" parent="dNxyNK7c78bLwvsdeMH5-21" source="WU_TZwehLQSFzrOL6X8j-32" target="WU_TZwehLQSFzrOL6X8j-34">
          <mxGeometry relative="1" as="geometry" />
        </mxCell>
        <mxCell id="WU_TZwehLQSFzrOL6X8j-32" value="&lt;font color=&quot;#ffffff&quot;&gt;Verificar se o pagamento foi efetuado corretamente&lt;/font&gt;" style="whiteSpace=wrap;html=1;fontColor=#000000;rounded=0;" vertex="1" parent="dNxyNK7c78bLwvsdeMH5-21">
          <mxGeometry x="900" y="20" width="100" height="80" as="geometry" />
        </mxCell>
        <mxCell id="WU_TZwehLQSFzrOL6X8j-37" value="" style="edgeStyle=orthogonalEdgeStyle;rounded=0;orthogonalLoop=1;jettySize=auto;html=1;" edge="1" parent="dNxyNK7c78bLwvsdeMH5-21" source="WU_TZwehLQSFzrOL6X8j-34" target="WU_TZwehLQSFzrOL6X8j-36">
          <mxGeometry relative="1" as="geometry" />
        </mxCell>
        <mxCell id="WU_TZwehLQSFzrOL6X8j-34" value="" style="rhombus;whiteSpace=wrap;html=1;fontColor=#000000;rounded=0;" vertex="1" parent="dNxyNK7c78bLwvsdeMH5-21">
          <mxGeometry x="1030" y="40" width="40" height="40" as="geometry" />
        </mxCell>
        <mxCell id="WU_TZwehLQSFzrOL6X8j-39" value="" style="edgeStyle=orthogonalEdgeStyle;rounded=0;orthogonalLoop=1;jettySize=auto;html=1;" edge="1" parent="dNxyNK7c78bLwvsdeMH5-21" source="WU_TZwehLQSFzrOL6X8j-36" target="WU_TZwehLQSFzrOL6X8j-38">
          <mxGeometry relative="1" as="geometry" />
        </mxCell>
        <mxCell id="WU_TZwehLQSFzrOL6X8j-36" value="&lt;font color=&quot;#ffffff&quot;&gt;Cancelar locação&lt;/font&gt;" style="whiteSpace=wrap;html=1;fontColor=#000000;rounded=0;" vertex="1" parent="dNxyNK7c78bLwvsdeMH5-21">
          <mxGeometry x="1100" y="30" width="70" height="60" as="geometry" />
        </mxCell>
        <mxCell id="WU_TZwehLQSFzrOL6X8j-38" value="" style="ellipse;whiteSpace=wrap;html=1;fontColor=#000000;rounded=0;" vertex="1" parent="dNxyNK7c78bLwvsdeMH5-21">
          <mxGeometry x="1200" y="40" width="40" height="40" as="geometry" />
        </mxCell>
        <mxCell id="dNxyNK7c78bLwvsdeMH5-22" value="Cliente" style="swimlane;html=1;startSize=20;horizontal=0;" parent="dNxyNK7c78bLwvsdeMH5-19" vertex="1">
          <mxGeometry x="20" y="240" width="1400" height="120" as="geometry" />
        </mxCell>
        <mxCell id="WU_TZwehLQSFzrOL6X8j-30" value="&lt;font color=&quot;#ffffff&quot;&gt;Efetuar pagamento&lt;/font&gt;" style="whiteSpace=wrap;html=1;fontColor=#000000;rounded=0;" vertex="1" parent="dNxyNK7c78bLwvsdeMH5-22">
          <mxGeometry x="800" y="40" width="80" height="60" as="geometry" />
        </mxCell>
        <mxCell id="WU_TZwehLQSFzrOL6X8j-48" value="" style="edgeStyle=orthogonalEdgeStyle;rounded=0;orthogonalLoop=1;jettySize=auto;html=1;" edge="1" parent="dNxyNK7c78bLwvsdeMH5-22" source="WU_TZwehLQSFzrOL6X8j-44" target="WU_TZwehLQSFzrOL6X8j-47">
          <mxGeometry relative="1" as="geometry" />
        </mxCell>
        <mxCell id="WU_TZwehLQSFzrOL6X8j-44" value="&lt;font color=&quot;#ffffff&quot;&gt;Receber veículo&lt;/font&gt;" style="whiteSpace=wrap;html=1;fontColor=#000000;rounded=0;" vertex="1" parent="dNxyNK7c78bLwvsdeMH5-22">
          <mxGeometry x="1220" y="40" width="80" height="60" as="geometry" />
        </mxCell>
        <mxCell id="WU_TZwehLQSFzrOL6X8j-47" value="" style="ellipse;whiteSpace=wrap;html=1;fontColor=#000000;rounded=0;" vertex="1" parent="dNxyNK7c78bLwvsdeMH5-22">
          <mxGeometry x="1340" y="50" width="40" height="40" as="geometry" />
        </mxCell>
        <mxCell id="WU_TZwehLQSFzrOL6X8j-2" value="" style="edgeStyle=orthogonalEdgeStyle;rounded=0;orthogonalLoop=1;jettySize=auto;html=1;" edge="1" parent="dNxyNK7c78bLwvsdeMH5-19" source="dNxyNK7c78bLwvsdeMH5-24" target="WU_TZwehLQSFzrOL6X8j-1">
          <mxGeometry relative="1" as="geometry">
            <Array as="points">
              <mxPoint x="195" y="130" />
              <mxPoint x="195" y="130" />
            </Array>
          </mxGeometry>
        </mxCell>
        <mxCell id="WU_TZwehLQSFzrOL6X8j-4" value="" style="edgeStyle=orthogonalEdgeStyle;rounded=0;orthogonalLoop=1;jettySize=auto;html=1;" edge="1" parent="dNxyNK7c78bLwvsdeMH5-19" source="WU_TZwehLQSFzrOL6X8j-1" target="WU_TZwehLQSFzrOL6X8j-3">
          <mxGeometry relative="1" as="geometry" />
        </mxCell>
        <mxCell id="WU_TZwehLQSFzrOL6X8j-11" value="" style="edgeStyle=orthogonalEdgeStyle;rounded=0;orthogonalLoop=1;jettySize=auto;html=1;" edge="1" parent="dNxyNK7c78bLwvsdeMH5-19" source="WU_TZwehLQSFzrOL6X8j-7" target="WU_TZwehLQSFzrOL6X8j-10">
          <mxGeometry relative="1" as="geometry">
            <Array as="points">
              <mxPoint x="500" y="110" />
              <mxPoint x="500" y="110" />
            </Array>
          </mxGeometry>
        </mxCell>
        <mxCell id="WU_TZwehLQSFzrOL6X8j-13" value="" style="edgeStyle=orthogonalEdgeStyle;rounded=0;orthogonalLoop=1;jettySize=auto;html=1;" edge="1" parent="dNxyNK7c78bLwvsdeMH5-19" source="WU_TZwehLQSFzrOL6X8j-5" target="WU_TZwehLQSFzrOL6X8j-10">
          <mxGeometry relative="1" as="geometry">
            <Array as="points">
              <mxPoint x="420" y="180" />
            </Array>
          </mxGeometry>
        </mxCell>
        <mxCell id="WU_TZwehLQSFzrOL6X8j-21" value="" style="edgeStyle=orthogonalEdgeStyle;rounded=0;orthogonalLoop=1;jettySize=auto;html=1;" edge="1" parent="dNxyNK7c78bLwvsdeMH5-19" source="WU_TZwehLQSFzrOL6X8j-18" target="WU_TZwehLQSFzrOL6X8j-20">
          <mxGeometry relative="1" as="geometry" />
        </mxCell>
        <mxCell id="WU_TZwehLQSFzrOL6X8j-27" value="" style="edgeStyle=orthogonalEdgeStyle;rounded=0;orthogonalLoop=1;jettySize=auto;html=1;" edge="1" parent="dNxyNK7c78bLwvsdeMH5-19" source="WU_TZwehLQSFzrOL6X8j-22" target="WU_TZwehLQSFzrOL6X8j-26">
          <mxGeometry relative="1" as="geometry" />
        </mxCell>
        <mxCell id="WU_TZwehLQSFzrOL6X8j-31" value="" style="edgeStyle=orthogonalEdgeStyle;rounded=0;orthogonalLoop=1;jettySize=auto;html=1;" edge="1" parent="dNxyNK7c78bLwvsdeMH5-19" source="WU_TZwehLQSFzrOL6X8j-28" target="WU_TZwehLQSFzrOL6X8j-30">
          <mxGeometry relative="1" as="geometry" />
        </mxCell>
        <mxCell id="WU_TZwehLQSFzrOL6X8j-33" value="" style="edgeStyle=orthogonalEdgeStyle;rounded=0;orthogonalLoop=1;jettySize=auto;html=1;" edge="1" parent="dNxyNK7c78bLwvsdeMH5-19" source="WU_TZwehLQSFzrOL6X8j-30" target="WU_TZwehLQSFzrOL6X8j-32">
          <mxGeometry relative="1" as="geometry" />
        </mxCell>
        <mxCell id="WU_TZwehLQSFzrOL6X8j-41" value="" style="edgeStyle=orthogonalEdgeStyle;rounded=0;orthogonalLoop=1;jettySize=auto;html=1;" edge="1" parent="dNxyNK7c78bLwvsdeMH5-19" source="WU_TZwehLQSFzrOL6X8j-34" target="WU_TZwehLQSFzrOL6X8j-40">
          <mxGeometry relative="1" as="geometry" />
        </mxCell>
        <mxCell id="WU_TZwehLQSFzrOL6X8j-45" value="" style="edgeStyle=orthogonalEdgeStyle;rounded=0;orthogonalLoop=1;jettySize=auto;html=1;" edge="1" parent="dNxyNK7c78bLwvsdeMH5-19" source="WU_TZwehLQSFzrOL6X8j-42" target="WU_TZwehLQSFzrOL6X8j-44">
          <mxGeometry relative="1" as="geometry">
            <Array as="points">
              <mxPoint x="1280" y="60" />
            </Array>
          </mxGeometry>
        </mxCell>
      </root>
    </mxGraphModel>
  </diagram>
</mxfile>
